<svg xmlns="http://www.w3.org/2000/svg" viewBox="0 0 96 96" role="img" aria-label="Ink and Imagination logo">
  <rect x="4" y="4" width="88" height="88" rx="24" fill="#342522"/>
  <rect x="11" y="11" width="74" height="74" rx="18" fill="none" stroke="#C3A15D" stroke-width="2" opacity="0.7"/>
  <path d="M48 20 C58 32 62 44 62 54 L48 78 L34 54 C34 44 38 32 48 20Z" fill="#C3A15D"/>
  <circle cx="48" cy="46" r="3.2" fill="#342522"/>
  <path d="M48 50 V70" stroke="#342522" stroke-width="2.4" stroke-linecap="round"/>
  <path d="M61 66 q10 -2 14 -10 q-10 0 -14 10Z" fill="#899783"/>
  <path d="M35 66 q-10 -2 -14 -10 q10 0 14 10Z" fill="#899783"/>
  <circle cx="29" cy="29" r="3" fill="#C7837D"/>
  <circle cx="67" cy="29" r="3" fill="#C7837D"/>
</svg>
